<!--?xml version="1.0" encoding="utf-8"?-->
<!-- Generator: Adobe Illustrator 19.1.1, SVG Export Plug-In . SVG Version: 6.00 Build 0)  -->
<svg version="1.1" id="_x31_0" xmlns="http://www.w3.org/2000/svg" xmlns:xlink="http://www.w3.org/1999/xlink" x="0px" y="0px" viewBox="0 0 512 512" style="width: 256px; height: 256px; opacity: 1;" xml:space="preserve">
<style type="text/css">
	.st0{fill:#374149;}
</style>
<g>
	<path class="st0" d="M166.308,80.77c0.285,0.066,0.554,0.168,0.843,0.222c-2.773,8.047-4.374,17.328-4.374,27.246
		c0,11.195,2.031,21.594,5.5,30.297l-9.34,27.328c-0.793,2.32,0.93,4.73,3.382,4.73h67.856c2.453,0,4.175-2.41,3.382-4.726
		l-3.942-11.535l0.004-0.004l38.039-24.278l3.539-2.242l-0.008-0.008l0.137-0.09l-16.309-20.91l-1.25-1.625l-0.012,0.007
		l-0.098-0.125l-14.492,13.203l-11.91,10.68c1.57-6.398,2.461-13.379,2.461-20.703c0-9.535-1.511-18.454-4.09-26.282
		c-0.098-0.32-0.172-0.66-0.274-0.98c11.016-1.832,19.926-10.446,21.852-21.762l11.426-50.172C259.687,4.41,256.167,0,251.417,0
		H141.078c-4.75,0-8.274,4.41-7.215,9.043l11.422,50.172C147.163,70.238,155.683,78.649,166.308,80.77z" style="fill: rgb(193, 193, 193);"></path>
	<path class="st0" d="M283.375,362.633c-0.406-0.598-0.73-1.18-1.153-1.782c-0.008,0.008-0.015,0.016-0.023,0.024
		c-0.031-0.043-0.058-0.09-0.09-0.133c-7.016,7.305-14.161,14.004-21.434,19.984c4.637,6.89,8.434,14.29,10.492,22.852
		c10.554,43.863-20.371,78.266-74.922,79.457c-47.758-1.027-77.395-27.516-76.977-63.527c-8.863-1.793-17.125-4.535-24.906-7.856
		c-1.09-0.488-2.289-0.839-3.351-1.363c-0.004,0.016-0.004,0.028-0.004,0.043c-0.051-0.023-0.106-0.035-0.157-0.058
		c-2.414,23.039,3.477,44.89,17.122,62.625c18.762,24.363,49.914,38.266,87.633,39.066l0.641,0.035l0.644-0.035
		c37.719-0.801,68.871-14.703,87.633-39.066c16.286-21.148,21.527-48.18,14.805-76.11
		C296.031,383.211,290.058,372.246,283.375,362.633z" style="fill: rgb(193, 193, 193);"></path>
	<polygon class="st0" points="258.421,100.715 276.765,124.238 299.163,109.953 301.159,108.695 301.151,108.683 301.288,108.598 
		281.823,83.183 280.222,81.07 280.211,81.078 280.113,80.953 	" style="fill: rgb(193, 193, 193);"></polygon>
	<path class="st0" d="M352.023,329.614l1.286-0.977c-0.004-0.004-0.008-0.008-0.008-0.008l0.125-0.102
		c-12.262-13.226-25.039-23.714-37.718-32.019c33.277-52.394,55.898-113.504,63.14-160.844c4.153-27,4.989-61.629-14.578-73.313
		c-5.633-3.347-11.715-4.699-17.766-4.699c-1.262,0-2.516,0.234-3.774,0.344c-0.156,0.012-0.309,0.023-0.461,0.039
		c-19.578,1.906-38.074,15.914-41.278,18.469c-0.023,0.015-0.074,0.054-0.094,0.07l0.004,0.004
		c-0.027,0.019-0.106,0.078-0.129,0.098l11.984,14.84l0.051,0.062l0,0l0.098,0.121c6.953-5.629,22.175-14.672,33.695-14.672
		c2.863,0,5.535,0.582,7.789,1.898c6.211,3.73,10.297,21.821,5.375,53.809c-7.145,46.664-29.77,104.785-58.992,151.676
		c-0.512,0.801-1.027,1.637-1.543,2.441c-17.446-9.074-34.211-14.32-48.722-17.374v-6.566v-6.566v-65.36h-108.52v72.348v6.82v6.563
		c-38.102,9.882-77.172,27.742-84.832,59.859c-3.797,15.867,1.481,32.019,14.902,45.442c5.954,5.922,13.031,10.972,21.047,15.062
		c8.336,4.277,17.602,7.496,27.546,9.59c9.332,1.992,19.211,3.023,29.414,3.023c12.195,0,24.879-1.48,37.523-4.473
		c23.234-5.535,45.219-17.926,65.461-34.855c7.305-6.078,14.352-12.774,21.141-19.949c10.946-11.524,21.242-24.298,30.797-37.879
		c11.106,7.242,22.274,16.379,33.086,27.871L352.023,329.614z M75.952,341.047c0.199-0.848,0.489-1.684,0.782-2.52
		c0.176-0.515,0.371-1.031,0.582-1.546c0.782-1.879,1.758-3.73,2.973-5.555c0.09-0.133,0.176-0.266,0.27-0.398
		c9.45-13.766,31.149-25.718,61.43-34.258v6.594v2.77c0,1.41-0.062,2.77-0.222,4.082v0.038c-0.035,0.606-0.098,1.219-0.195,1.801
		c-0.031,0.254-0.098,0.512-0.129,0.77c-0.094,0.61-0.223,1.223-0.352,1.805c-0.066,0.254-0.098,0.516-0.195,0.77
		c-0.16,0.809-0.386,1.614-0.645,2.383c0,0.031-0.031,0.066-0.031,0.098c-2.801,8.882-8.945,16.73-17.828,27.546
		c-5.078,6.18-10.438,12.813-15.277,20.254c-0.352,0.523-0.742,0.984-1.094,1.519c0.008,0.004,0.016,0.008,0.016,0.008
		c-0.023,0.046-0.058,0.086-0.09,0.133c7.37,4.054,17.054,7.469,28.835,9.141c13.161-18.086,30.895-33.344,35.207-58.602
		c0.226-1.45,0.45-2.93,0.578-4.446c0.129-0.898,0.191-1.828,0.226-2.766c0.031-0.191,0.031-0.386,0.031-0.578
		c0.098-1.289,0.129-2.606,0.129-3.957v-2.934v-6.594v-6.504v-19.594v-6.504v-6.594v-12.199c0-14.711,0-25.262,0-25.262h50.59
		c0,0,0,10.55,0,25.262v7.691v6.438v6.434v19.277v6.438v6.469v8.176c0,1.351,0.031,2.668,0.129,3.957c0,0.192,0,0.387,0.031,0.578
		c0.031,0.938,0.098,1.867,0.226,2.766c0.129,1.516,0.351,2.996,0.578,4.446c1.699,9.898,5.476,18.222,10.218,25.839
		c0.254,0.422,0.454,0.836,0.715,1.262c0.007-0.008,0.015-0.016,0.023-0.02c0.027,0.047,0.05,0.098,0.082,0.141
		c7.722-6.465,14.866-13.543,21.434-20.785c-1.126-2.126-2.028-4.25-2.703-6.438c0-0.031-0.031-0.066-0.031-0.098
		c-0.258-0.77-0.485-1.574-0.645-2.383c-0.098-0.254-0.129-0.515-0.195-0.77c-0.129-0.582-0.254-1.195-0.352-1.805
		c-0.035-0.258-0.098-0.515-0.129-0.77c-0.129-0.839-0.226-1.71-0.258-2.578c-0.129-1.09-0.16-2.188-0.16-3.344v-3.734v-6.602
		v-5.566l0.031-1.086c11,2.586,23.308,6.703,36.133,13c0.582,0.297,1.183,0.546,1.762,0.851
		c-7.687,10.902-16.469,22.031-26.211,32.52c-6.566,7.109-13.613,13.902-21.113,20.113c-17.153,14.352-36.559,25.68-57.993,30.797
		c-11.55,2.766-22.558,3.989-32.859,3.989c-8.172,0-15.894-0.774-23.008-2.157c-10.621-2.058-19.922-5.434-27.578-9.652
		c-5.57-3.058-10.27-6.535-13.969-10.234C77.238,359.871,73.765,350.187,75.952,341.047z" style="fill: rgb(193, 193, 193);"></path>
	<path class="st0" d="M455.151,460.054l-12.777-16.472c-0.031-5.727-2.348-12.329-6.918-18.219
		c-4.054-5.242-9.141-8.946-14.129-10.714c-0.481-5.282-2.766-11.133-6.855-16.383c-4.055-5.278-9.172-8.946-14.126-10.715
		c-0.484-5.277-2.769-11.133-6.855-16.41c-4.539-5.856-10.363-9.786-15.867-11.27l-8.754-11.293l-3.926-5.082l-0.934-1.191
		l5.859-4.543l0.351-0.285l-6.539-8.461l-0.054-0.074v0.004l-0.098-0.129l-0.742,0.582l-5.082,3.926l-15.29,11.844l-5.086,3.926
		l-3.57,2.766l6.691,8.66l3.961-3.058l2.286-1.77l1.382,1.77l3.926,5.086l8.305,10.75c0.031,5.691,2.347,12.289,6.918,18.18
		c4.054,5.281,9.172,8.949,14.16,10.714c0.45,5.282,2.734,11.137,6.824,16.414c4.086,5.246,9.172,8.945,14.157,10.714
		c0.453,5.282,2.77,11.141,6.824,16.383c4.539,5.89,10.363,9.781,15.898,11.266l12.742,16.473c0.84,1.098,2.125,1.679,3.414,1.679
		c0.934,0,1.832-0.289,2.637-0.902l10.493-8.109C456.246,464.66,456.601,461.922,455.151,460.054z" style="fill: rgb(193, 193, 193);"></path>
</g>
</svg>
